<?xml version="1.0" encoding="utf-8"?>
<!-- Generator: Adobe Illustrator 27.2.0, SVG Export Plug-In . SVG Version: 6.00 Build 0)  -->
<svg version="1.1" id="Layer_1" xmlns="http://www.w3.org/2000/svg" xmlns:xlink="http://www.w3.org/1999/xlink" x="0px" y="0px"
	 viewBox="0 0 1366 768" enable-background="new 0 0 1366 768" xml:space="preserve">
<g>
	<path fill="#FFFFFF" d="M449.5,257.94V645c0,4.95,2.16,5.58,4.8,1.39l96.6-153.01c2.64-4.19,8.85-7.61,13.8-7.61H853
		c4.95,0,9-4.05,9-9V223.86c0-4.95-4.05-9-9-9H458.5c-4.95,0-9,4.05-9,9C449.5,223.86,449.5,301.95,449.5,257.94z"/>
	<path fill="none" stroke="#000000" stroke-width="4" stroke-miterlimit="10" d="M449.5,257.94V645c0,4.95,2.16,5.58,4.8,1.39
		l96.6-153.01c2.64-4.19,8.85-7.61,13.8-7.61H853c4.95,0,9-4.05,9-9V223.86c0-4.95-4.05-9-9-9H458.5c-4.95,0-9,4.05-9,9
		C449.5,223.86,449.5,301.95,449.5,257.94z"/>
</g>
<path fill="#FFFFFF" stroke="#000000" stroke-width="2" stroke-miterlimit="10" d="M521.13,268.29h284.51H521.13z"/>
<path fill="#FFFFFF" stroke="#000000" stroke-width="2" stroke-miterlimit="10" d="M521.13,345.95h284.51H521.13z"/>
<path fill="#FFFFFF" stroke="#000000" stroke-width="2" stroke-miterlimit="10" d="M521.13,408.21h284.51H521.13z"/>
</svg>
